:SAMPLES-PER-SECOND 30
:FULLY-SPECIFIED
:DEGREES
556
root  80.7318 38.8064 -1.2502 21.9451 83.6542 25.9158
RightUpLeg  -8.94701 11.3546 -9.4898
RightLeg  13.7723 9.50953 1.75991
RightFoot  -8.35702 -0.251901 7.58532
RightToes  -1.33073e-015 0 -3.6325e-017
Spine  0.262251 -0.21307 1.3519
Spine1  7.85029 1.29072 -7.57052
HEad  -22.8778 7.86172 -5.59223
LeftShoulder1  -0.496061 4.6992 -35.3152
LeftArm  5.25714 -0.0738135 -36.359
LeftForeArm  24.9268 -44.8409 -9.39671
LeftHand  -0.0820998 3.91936 5.01977
RightShoulder  -0.896054 -5.97441 29.6778
RightArm  12.2236 -9.70807 44.8664
RightForeArm  22.0897 6.32081 6.34803
RightHand  0.0891388 1.91481 1.24386
LeftUpLeg  -2.09573 5.16942 -4.39947
LeftLeg  11.2874 0.329349 -0.753756
LeftFoot  -4.11381 -0.369465 6.26824
LeftToes  -1.63346e-009 7.54925e-011 9.86887e-012
557
root  81.1355 38.9376 -1.37937 18.4966 83.7976 22.2855
RightUpLeg  -7.59509 5.45579 -7.74951
RightLeg  10.1963 19.1141 0.786024
RightFoot  -3.13025 -0.504972 6.6896
RightToes  -1.33073e-015 0 -3.6325e-017
Spine  -0.500888 -0.12998 4.14352
Spine1  8.64228 1.82705 -9.17952
HEad  -22.905 7.63457 -5.68728
LeftShoulder1  -0.528663 4.77546 -35.3846
LeftArm  5.38603 0.764966 -35.7903
LeftForeArm  24.0641 -44.3403 -9.27853
LeftHand  -0.10999 3.40379 5.50198
RightShoulder  -0.914894 -6.01427 29.8586
RightArm  12.02 -11.1236 44.1417
RightForeArm  21.867 6.52927 6.18978
RightHand  0.0886341 2.50104 1.10686
LeftUpLeg  -0.771362 4.96372 -4.30502
LeftLeg  9.61472 0.548412 -0.496433
LeftFoot  -3.96855 -0.361329 6.04971
LeftToes  -1.63346e-009 7.54925e-011 9.86887e-012
558
root  81.4032 38.984 -1.28153 17.9147 83.9395 21.5083
RightUpLeg  -7.46729 6.72049 -7.34982
RightLeg  10.793 16.9366 0.438554
RightFoot  -3.03018 -0.373019 4.8511
RightToes  -1.33073e-015 0 -3.6325e-017
Spine  -0.220359 0.144265 4.19872
Spine1  8.41252 1.97002 -8.56301
HEad  -22.6152 7.56834 -5.97477
LeftShoulder1  -0.550125 4.82005 -35.6027
LeftArm  5.0538 1.57496 -35.8415
LeftForeArm  24.1824 -41.9266 -8.46577
LeftHand  -0.0755317 3.72998 4.17967
RightShoulder  -0.906017 -5.99187 29.826
RightArm  12.73 -10.836 44.0721
RightForeArm  20.9796 4.86636 6.52932
RightHand  0.0785629 2.53088 0.971745
LeftUpLeg  -0.259887 5.10184 -3.97385
LeftLeg  9.08269 0.251347 -0.605411
LeftFoot  -4.05225 -0.361862 5.96842
LeftToes  -1.63346e-009 7.54925e-011 9.86887e-012
559
root  81.4986 39.0166 -1.01936 20.6133 84.1892 23.381
RightUpLeg  -8.25585 7.12863 -7.03766
RightLeg  10.9813 15.903 0.104065
RightFoot  -2.57604 -0.343161 4.23957
RightToes  -1.33073e-015 0 -3.6325e-017
Spine  0.74336 0.358379 2.55666
Spine1  6.87317 1.76257 -6.71432
HEad  -22.7292 7.61606 -5.89493
LeftShoulder1  -0.554492 4.83369 -35.505
LeftArm  5.53729 1.98077 -36.2155
LeftForeArm  22.2173 -37.1638 -7.14014
LeftHand  -0.0729263 4.38437 5.23644
RightShoulder  -0.929569 -6.04108 30.0552
RightArm  11.9433 -10.9681 44.0912
RightForeArm  24.3216 5.68389 6.15449
RightHand  0.158479 1.89062 2.34628
LeftUpLeg  -0.903211 5.22278 -3.54005
LeftLeg  8.94248 -0.328098 -0.992823
LeftFoot  -3.983 -0.347999 5.78383
LeftToes  -1.63346e-009 7.54925e-011 9.86887e-012
560
root  81.6285 39.0194 -0.7725 23.9973 84.7998 26.2003
RightUpLeg  -8.44298 6.70221 -6.70396
RightLeg  10.9035 15.5312 -0.114949
RightFoot  -2.44563 -0.435246 5.38477
RightToes  -1.33073e-015 0 -3.6325e-017
Spine  1.30004 0.309356 0.793285
Spine1  5.91663 1.23819 -4.6672
HEad  -21.8764 7.99961 -5.73406
LeftShoulder1  -0.548229 4.82299 -35.3658
LeftArm  6.04714 2.74855 -36.9279
LeftForeArm  20.9568 -31.7338 -5.74161
LeftHand  -0.0121466 5.96657 2.74681
RightShoulder  -0.929397 -6.03732 30.1019
RightArm  13.7151 -8.90366 44.4596
RightForeArm  24.1643 4.12285 6.94593
RightHand  0.127975 1.08649 2.19486
LeftUpLeg  -1.4873 5.52388 -2.98766
LeftLeg  9.32387 -1.3268 -1.45761
LeftFoot  -4.13076 -0.335468 5.71612
LeftToes  -1.63346e-009 7.54925e-011 9.86887e-012
561
root  81.8256 39.0677 -0.595273 26.7715 85.6027 28.6075
RightUpLeg  -8.26953 5.81768 -6.15261
RightLeg  10.6553 15.5692 -0.461436
RightFoot  -2.00032 -0.386846 4.55825
RightToes  -1.33073e-015 0 -3.6325e-017
Spine  0.997894 0.19061 -0.0078944
Spine1  6.15858 0.813935 -3.23945
HEad  -22.0245 7.6156 -5.42973
LeftShoulder1  -0.48757 4.68141 -35.2247
LeftArm  7.39404 3.14378 -37.9861
LeftForeArm  17.5822 -24.9687 -4.73005
LeftHand  0.00372597 6.62148 3.26451
RightShoulder  -0.934868 -6.04219 30.2463
RightArm  14.1068 -7.40125 44.665
RightForeArm  23.6973 4.36298 7.12951
RightHand  0.136268 1.40965 2.23316
LeftUpLeg  -1.51712 5.63173 -2.51568
LeftLeg  9.22022 -2.38321 -1.60878
LeftFoot  -4.06046 -0.325477 5.49313
LeftToes  -1.63346e-009 7.54925e-011 9.86887e-012
562
root  82.0963 39.0999 -0.488622 29.4113 85.9856 30.6819
RightUpLeg  -8.43054 5.70024 -5.9437
RightLeg  10.7394 15.0979 -0.420459
RightFoot  -1.90605 -0.316467 3.69363
RightToes  -1.33073e-015 0 -3.6325e-017
Spine  0.539861 0.182037 0.512668
Spine1  5.85371 0.847983 -3.4972
HEad  -21.074 6.54033 -4.45994
LeftShoulder1  -0.517381 4.74813 -35.3933
LeftArm  7.44353 3.21739 -37.8581
LeftForeArm  17.812 -17.5392 -6.00174
LeftHand  0.0298651 8.55813 2.68903
RightShoulder  -0.962058 -6.10633 30.3917
RightArm  14.7434 -6.53442 44.7292
RightForeArm  22.4082 5.62714 7.38945
RightHand  0.0824469 2.38847 1.02359
LeftUpLeg  -1.55994 5.57639 -2.32087
LeftLeg  9.02558 -2.83477 -1.51631
LeftFoot  -4.20801 -0.288913 5.03966
LeftToes  -1.63346e-009 7.54925e-011 9.86887e-012
563
root  82.2807 39.1645 -0.146863 41.1277 87.2616 41.8638
RightUpLeg  -8.467 5.81402 -4.94309
RightLeg  10.8245 13.5404 -1.37172
RightFoot  -1.53719 -0.160721 1.74093
RightToes  -1.33073e-015 0 -3.6325e-017
Spine  0.658357 0.0304482 -1.38056
Spine1  4.87099 0.166512 -0.812998
HEad  -19.8579 6.03801 -3.61891
LeftShoulder1  -0.535758 4.79092 -35.4371
LeftArm  -0.420831 4.30789 -37.3625
LeftForeArm  28.1498 -10.8797 -8.51212
LeftHand  -0.0222101 9.12226 0.836939
RightShoulder  -0.975648 -6.13447 30.5156
RightArm  15.0993 -5.54652 45.1762
RightForeArm  21.3777 6.71985 7.54304
RightHand  0.0540293 2.58655 0.586981
LeftUpLeg  -1.47675 5.98613 -1.41802
LeftLeg  8.02509 -4.77298 -2.07361
LeftFoot  -3.83415 -0.307721 5.04255
LeftToes  -1.63346e-009 7.54925e-011 9.86887e-012
564
root  82.4926 39.1831 0.0289192 51.8968 87.3934 52.0937
RightUpLeg  -8.60435 5.0042 -4.96052
RightLeg  10.7613 13.8439 -1.33123
RightFoot  -1.84327 -0.191699 2.16482
RightToes  -1.33073e-015 0 -3.6325e-017
Spine  -0.145971 0.125639 -1.60185
Spine1  5.17112 0.248262 -0.608994
HEad  -19.4257 5.22561 -2.94673
LeftShoulder1  -0.501855 4.70943 -35.4395
LeftArm  -4.4802 6.00034 -37.1192
LeftForeArm  33.7644 -6.37254 -8.6953
LeftHand  -0.0688639 9.61661 -0.468359
RightShoulder  -0.990955 -6.17252 30.5646
RightArm  15.1262 -3.73822 46.081
RightForeArm  20.3644 7.52454 7.55227
RightHand  0.0235047 2.86076 0.111115
LeftUpLeg  -1.49134 5.79038 -1.44639
LeftLeg  7.5105 -5.05542 -1.98581
LeftFoot  -3.68347 -0.292832 4.70229
LeftToes  -1.63346e-009 7.54925e-011 9.86887e-012
565
root  82.7604 39.2081 0.205215 61.2084 88.0587 61.0005
RightUpLeg  -7.84518 2.79854 -4.18573
RightLeg  9.50798 15.2266 -1.67149
RightFoot  -2.03747 -0.309764 3.62889
RightToes  -1.33073e-015 0 -3.6325e-017
Spine  -1.41281 0.0370573 -0.283902
Spine1  6.36721 0.368519 -1.66079
HEad  -19.5039 4.86578 -2.58666
LeftShoulder1  -0.499991 4.70618 -35.3985
LeftArm  -4.10301 8.06693 -36.5142
LeftForeArm  35.9232 -4.50331 -8.76766
LeftHand  -0.101056 9.71688 -1.10137
RightShoulder  -1.00288 -6.19513 30.6977
RightArm  15.0166 -2.13841 47.0835
RightForeArm  20.7463 9.5149 7.15382
RightHand  0.0349798 2.62834 0.301201
LeftUpLeg  -1.58109 5.88906 -0.861278
LeftLeg  7.62903 -5.86871 -1.844
LeftFoot  -3.88195 -0.271099 4.51652
LeftToes  -1.63346e-009 7.54925e-011 9.86887e-012
566
root  82.8171 39.2488 0.551014 91.2792 88.1854 90.5804
RightUpLeg  -8.0567 1.75184 -3.6781
RightLeg  9.29848 15.0195 -1.83448
RightFoot  -1.68805 -0.28698 3.26281
RightToes  -1.33073e-015 0 -3.6325e-017
Spine  -0.545416 0.145829 -1.44717
Spine1  5.12572 0.199441 -0.198307
HEad  -18.8555 4.29514 -2.60621
LeftShoulder1  -0.504039 4.71591 -35.3922
LeftArm  -3.40842 10.5682 -35.7686
LeftForeArm  39.081 -4.1872 -8.99214
LeftHand  -0.221139 10.202 -3.86025
RightShoulder  -1.00482 -6.20263 30.6667
RightArm  18.6229 0.839973 47.7246
RightForeArm  18.0072 9.57826 8.18695
RightHand  0.0118734 2.93988 -0.0781771
LeftUpLeg  -2.0195 6.08829 -0.292306
LeftLeg  7.60421 -7.34839 -2.11866
LeftFoot  -3.30463 -0.284732 4.33777
LeftToes  -1.63346e-009 7.54925e-011 9.86887e-012
567
root  82.9062 39.2903 0.893079 133.764 87.7516 132.837
RightUpLeg  -7.88457 0.459139 -3.01567
RightLeg  9.09714 14.5065 -1.97744
RightFoot  -1.19983 -0.205156 2.2218
RightToes  -1.33073e-015 0 -3.6325e-017
Spine  -0.070924 0.156514 -2.66136
Spine1  4.83431 -0.16078 1.76394
HEad  -19.0345 4.80039 -3.26542
LeftShoulder1  -0.457454 4.61079 -35.149
LeftArm  -3.66004 13.9545 -35.7234
LeftForeArm  40.8489 -5.87606 -8.79296
LeftHand  -0.238677 10.1812 -4.19997
RightShoulder  -1.00021 -6.19375 30.6174
RightArm  21.2386 3.61001 48.4129
RightForeArm  15.9336 10.2358 8.59657
RightHand  0.0585004 3.67904 0.500296
LeftUpLeg  -2.17452 6.48731 0.452565
LeftLeg  7.30776 -9.2968 -2.44081
LeftFoot  -2.96846 -0.270762 3.9407
LeftToes  -1.63346e-009 7.54925e-011 9.86887e-012
568
root  83.0138 39.3238 1.04971 156.904 87.3466 155.922
RightUpLeg  -7.30955 -0.963443 -2.19602
RightLeg  8.28854 14.5167 -1.87248
RightFoot  -0.386315 -0.161841 1.65674
RightToes  -1.33073e-015 0 -3.6325e-017
Spine  0.182776 0.369728 0.31267
Spine1  5.07333 0.432673 -0.239871
HEad  -19.5597 6.16623 -4.3533
LeftShoulder1  -0.473294 4.64714 -35.216
LeftArm  -2.47657 15.7233 -35.1841
LeftForeArm  39.874 -7.20353 -8.97457
LeftHand  -0.332402 10.6919 -5.74774
RightShoulder  -1.01572 -6.23386 30.6442
RightArm  22.9133 5.16382 48.8679
RightForeArm  15.469 12.5473 7.85501
RightHand  0.0947006 2.31644 1.22083
LeftUpLeg  -2.23913 6.38451 1.13093
LeftLeg  7.21614 -10.1304 -2.04637
LeftFoot  -2.83995 -0.265496 3.80067
LeftToes  -1.63346e-009 7.54925e-011 9.86887e-012
